# xmcd CD database file
# Copyright (C) 1996 Ti Kan
#
# Track frame offsets:
# 	182
# 	14560
# 	27085
# 	40167
# 	56632
# 	71852
# 	84005
# 	99127
# 	111767
# 	131235
# 	143917
#
# Disc length: 2200 seconds
#
# Revision: 1
# Processed by: cddbd v1.4b41PL1 Copyright (c) Steve Scherf et al.
# Submitted via: DiscPlay 3.4.1
#
DISCID=8f08960b
DTITLE=HighwayMen - The Road Goes On Forever
DYEAR=1900
DGENRE=
TTITLE0=The Devils Right Hand
TTITLE1=Live Forever
TTITLE2=Everyone Gets Crazy
TTITLE3=It Is What It Is
TTITLE4=I Do Believe
TTITLE5=The End Of Understanding
TTITLE6=True Love Travels A Gravel Road
TTITLE7=Death And Hell
TTITLE8=Waiting For A Long Time
TTITLE9=Here Comes That Rainbow Again
TTITLE10=The Road Goes On Forever
EXTD=
EXTT0=
EXTT1=
EXTT2=
EXTT3=
EXTT4=
EXTT5=
EXTT6=
EXTT7=
EXTT8=
EXTT9=
EXTT10=
PLAYORDER=
